<svg width="18" height="24" viewBox="0 0 18 24" fill="none" xmlns="http://www.w3.org/2000/svg">
<path d="M6.08313 0.0415039C5.59819 0.0415039 5.16382 0.341488 4.99207 0.794998L4.72422 1.50232C4.15001 1.44495 3.62096 1.38768 3.19268 1.33959C2.87254 1.30365 2.60937 1.2729 2.42656 1.25119L2.21569 1.22588L2.14407 1.21712C1.50463 1.13795 0.921158 1.59202 0.841973 2.23146C0.762787 2.87091 1.21697 3.45347 1.85642 3.53266L1.93434 3.54219L2.15131 3.56823C2.33838 3.59045 2.60657 3.62178 2.93233 3.65836C3.58328 3.73145 4.4668 3.8258 5.39376 3.9104C6.64417 4.02452 8.0148 4.12484 8.9998 4.12484C9.98479 4.12484 11.3554 4.02452 12.6058 3.9104C13.5328 3.8258 14.4163 3.73145 15.0673 3.65836C15.393 3.62178 15.6612 3.59045 15.8483 3.56823L16.0653 3.54219L16.143 3.53268C16.7825 3.45349 17.2368 2.87091 17.1576 2.23146C17.0784 1.59202 16.4959 1.13784 15.8564 1.21701L15.7839 1.22588L15.573 1.25119C15.3902 1.2729 15.1271 1.30365 14.8069 1.33959C14.3786 1.38768 13.8496 1.44495 13.2754 1.50232L13.0075 0.794998C12.8358 0.341488 12.4014 0.0415039 11.9165 0.0415039H6.08313Z" fill="#D92D20"/>
<path d="M7.83313 11.7082C7.83313 11.0638 7.31079 10.5415 6.66646 10.5415C6.02213 10.5415 5.4998 11.0638 5.4998 11.7082V17.5415C5.4998 18.1858 6.02213 18.7082 6.66646 18.7082C7.31079 18.7082 7.83313 18.1858 7.83313 17.5415V11.7082Z" fill="#D92D20"/>
<path d="M11.3331 10.5415C11.9775 10.5415 12.4998 11.0638 12.4998 11.7082V17.5415C12.4998 18.1858 11.9775 18.7082 11.3331 18.7082C10.6888 18.7082 10.1665 18.1858 10.1665 17.5415V11.7082C10.1665 11.0638 10.6888 10.5415 11.3331 10.5415Z" fill="#D92D20"/>
<path fill-rule="evenodd" clip-rule="evenodd" d="M17.0611 7.39215C17.1668 5.91193 15.8906 4.72524 14.4403 4.89285C12.9563 5.06436 10.6662 5.2915 8.9998 5.2915C7.3334 5.2915 5.04332 5.06436 3.55929 4.89285C2.10897 4.72524 0.832806 5.91192 0.938536 7.39215L1.93806 21.3855C2.01383 22.4462 2.80393 23.3431 3.88821 23.5061C5.05092 23.681 7.18439 23.9603 9.00114 23.9582C10.7956 23.9561 12.9377 23.678 14.1056 23.5048C15.1917 23.3436 15.9858 22.4462 16.0618 21.3823L17.0611 7.39215ZM14.7082 7.21076C14.7122 7.21029 14.7153 7.21057 14.7153 7.21057L14.7184 7.21127C14.721 7.21216 14.7251 7.21429 14.7291 7.21811C14.7318 7.22063 14.7337 7.22371 14.7337 7.22371L14.7337 7.22591L13.7354 21.2008C12.5796 21.3716 10.5987 21.623 8.99845 21.6248C7.3808 21.6267 5.41215 21.375 4.26431 21.2031L3.26594 7.22591L3.26585 7.22371C3.26585 7.22371 3.26784 7.22063 3.2705 7.21811C3.27452 7.21429 3.27859 7.21216 3.28118 7.21127L3.28426 7.21057C3.28426 7.21057 3.28737 7.21029 3.29141 7.21076C4.77808 7.38257 7.18615 7.62484 8.9998 7.62484C10.8134 7.62484 13.2215 7.38257 14.7082 7.21076Z" fill="#D92D20"/>
</svg>
